<?xml version="1.0" encoding="UTF-8" standalone="no"?>
<!-- Created with Inkscape (http://www.inkscape.org/) -->

<svg
   xmlns:dc="http://purl.org/dc/elements/1.1/"
   xmlns:cc="http://creativecommons.org/ns#"
   xmlns:rdf="http://www.w3.org/1999/02/22-rdf-syntax-ns#"
   xmlns:svg="http://www.w3.org/2000/svg"
   xmlns="http://www.w3.org/2000/svg"
   version="1.1"
   width="64"
   height="64"
   id="svg2985">
  <title
     id="title3787">Willerator Logo</title>
  <defs
     id="defs2987">
    <linearGradient
       id="linearGradient3777">
      <stop
         id="stop3779"
         style="stop-color:#0b76ff;stop-opacity:1"
         offset="0" />
      <stop
         id="stop3785"
         style="stop-color:#2fa6e1;stop-opacity:0.49803922"
         offset="0.5" />
      <stop
         id="stop3781"
         style="stop-color:#2fa6e1;stop-opacity:0"
         offset="1" />
    </linearGradient>
  </defs>
  <metadata
     id="metadata2990">
    <rdf:RDF>
      <cc:Work
         rdf:about="">
        <dc:format>image/svg+xml</dc:format>
        <dc:type
           rdf:resource="http://purl.org/dc/dcmitype/StillImage" />
        <dc:title>Willerator Logo</dc:title>
      </cc:Work>
    </rdf:RDF>
  </metadata>
  <g
     id="layer1">
    <path
       d="M 64.07547,32 A 32.07547,32 0 1 1 -0.07546997,32 32.07547,32 0 1 1 64.07547,32 z"
       transform="matrix(0.99764711,0,0,1,0.0752924,0)"
       id="path2993"
       style="fill:#0169c9;fill-opacity:1;stroke:none" />
    <path
       d="M 106.03208,25.390147 A 29.875261,32.350136 0 0 1 77.95852,46.675884 l -10e-7,-32.350136 z"
       transform="matrix(1.0711203,0,0,0.98917664,-51.502956,17.829306)"
       id="path2992"
       style="fill:#0197fd;fill-opacity:1;stroke:none" />
    <path
       d="M 49.884956,3.2613505 A 29.875261,32.350136 0 0 1 77.95852,-18.024387 l -10e-7,32.350135 z"
       transform="matrix(1.0711203,0,0,0.98917664,-51.502956,17.829306)"
       id="path2994"
       style="fill:#0197fd;fill-opacity:1;stroke:none" />
    <path
       d="M 9.5000001,17.5 C 21.037725,49.673694 27.268098,38.553753 21.037725,49.673694 14.807354,60.793635 9.5000001,17.5 9.5000001,17.5 z"
       id="path2999"
       style="fill:#96f0ff;fill-opacity:1;stroke:none" />
    <path
       d="M 55.500001,17.6 C 43.962276,49.679065 37.731903,38.59183 43.962276,49.679065 50.192647,60.766301 55.500001,17.6 55.500001,17.6 z"
       id="path3001"
       style="fill:#96f0ff;fill-opacity:1;stroke:none" />
    <path
       d="m 32.000001,31.35849 a 0.03773585,18.679245 0 1 1 -0.07547,0 0.03773585,18.679245 0 1 1 0.07547,0 z"
       transform="matrix(52.999999,0,0,0.9368687,-1662,1.1212123)"
       id="path3773"
       style="fill:#96f0ff;fill-opacity:1;stroke:none" />
  </g>
</svg>
